<svg id="Layer_1" data-name="Layer 1" xmlns="http://www.w3.org/2000/svg" viewBox="0 0 403.32 403.91"><defs><style>.cls-1{fill:#edf3f9;}.cls-2{fill:#c8c8c8;}.cls-3{fill:#e4c01c;}</style></defs><path class="cls-1" d="M233.4,254.48c-4.73-10.55-9.32-21-12.21-32.08-3.28-12.57-5.38-25.3-3.76-38.32,1.16-9.34,4.39-17.84,11.78-24.13,11.49-9.78,26-8.69,37.6,2.33,7.9,7.49,12.22,16.9,15.6,26.95a173,173,0,0,1,8.51,41,1.33,1.33,0,0,0,.63,1c.29-1.71.6-3.42.86-5.14,2.11-13.77,4.65-27.42,9.62-40.52a56.71,56.71,0,0,1,22.49-27.89c14.48-9.58,31.81-1.25,37.42,11.41,4.32,9.75,4.86,20,4.2,30.37C365,217.94,359.05,235,350.89,251.4a5.8,5.8,0,0,0-.75,2.71c.6-.81,1.22-1.62,1.81-2.44,7.21-10,14.61-19.87,23.69-28.33a98.68,98.68,0,0,1,31-19.78c6.05-2.4,12.36-3.55,18.85-2.25,11.8,2.37,19.61,12.3,19.89,25.11.32,14.91-4.53,27.68-15.2,38.33a264.51,264.51,0,0,1-36.85,30.62,11.29,11.29,0,0,0-2.59,2.26c5.05-2.29,10.07-4.64,15.16-6.86a116.83,116.83,0,0,1,51.78-10.17c9.05.34,17.7,2.06,25.08,7.86,10.81,8.51,13.23,20.33,6.55,32.44C484,330.63,475.5,337,466,342.07c-14,7.5-29.28,10.33-44.95,11.49-4.15.31-8.31.5-12.54,1,1.05.17,2.09.41,3.14.51,16.25,1.55,32.16,4.75,47.41,10.65,12.77,4.95,23.34,12.78,30,25.15a34.28,34.28,0,0,1,3.93,14.35c.34,5.69-2.27,10.11-6.28,13.85-11.34,10.58-24.85,14.41-40.08,12.71-14.4-1.6-27.88-6.38-41.09-12.06-4.12-1.77-8.16-3.69-12.51-5.19.67.5,1.34,1,2,1.49,8.82,6.16,17.55,12.46,25,20.31a135.87,135.87,0,0,1,19.58,26.46c4.6,8.12,6.71,17,4.63,26.26-3.67,16.29-14,23.62-30.78,20.77-13-2.19-24-8.38-33.51-17.26-9.81-9.14-17.41-20.14-25.53-30.71a64.31,64.31,0,0,0-5.78-6.87c.36.8.7,1.6,1.09,2.38,6.1,12.17,11.66,24.56,14.43,38,3.1,15.07,2.94,30-3.25,44.39a28.62,28.62,0,0,1-18.18,16.38c-7.25,2.37-13.81.5-20-3.47-8.59-5.56-13.95-13.67-17.83-22.91C296.34,509.34,292.14,488,290.46,466c-.17,1.07-.39,2.14-.5,3.21-1.53,14.84-3,29.69-7.53,44-3.4,10.78-7.66,21.18-14.95,30-4.11,5-8.87,9.29-14.91,11.89a22.62,22.62,0,0,1-27-6.22,44.12,44.12,0,0,1-10.77-31.14c.62-20.5,6.49-39.67,15.27-58.05a40.88,40.88,0,0,0,2.84-6.79c-.57.7-1.15,1.39-1.7,2.1-8,10.35-15.66,21-24.06,31a63.89,63.89,0,0,1-38.07,22.28,34.28,34.28,0,0,1-21.45-2.81,17.18,17.18,0,0,1-9.3-11.19c-3.54-12.15-1.27-23.55,4.42-34.52,7-13.49,17-24.42,28.88-33.73,6.33-5,13-9.55,20-14.7L188,413c-13.63,5.86-27.3,11.62-41.86,14.85-11.54,2.55-23.07,3.28-34.58-.32-10.3-3.23-18.25-8.88-20.88-20.06-2.3-9.74.69-18.21,6.78-25.61,7.93-9.65,17.6-16.86,29.89-20.33a205.23,205.23,0,0,1,41.09-6.86,8.72,8.72,0,0,0,3.49-.79c-.74-.09-1.48-.2-2.23-.27-13.45-1.18-27-2.09-40-6.06-13.56-4.15-25.45-10.87-33.49-23-4-6.05-7-12.6-6.43-20.09.88-11,7.18-18,17.07-22,12.93-5.31,26.18-4.84,39.56-2.12,14.47,2.93,28,8.46,41.49,14.35a16,16,0,0,0,4.59,1.45c-.75-.51-1.5-1-2.26-1.51-15.58-10-29.62-21.82-41.25-36.36C139.43,246.29,135.9,233,139.09,218c2.37-11.12,10-17.44,22.17-18.37,11.93-.91,22.27,3.14,31.69,10,13.29,9.68,23.75,22.08,33.43,35.2C228.75,248,231.06,251.26,233.4,254.48Z" transform="translate(-89.7 -153.26)"/><path class="cls-2" d="M227.89,351.51c.24,3,.37,6,.73,9,1.91,15.7,9.26,28.57,21.78,37.95,18.6,13.94,39.32,16.9,61.56,10.14,26.38-8,40.87-32.22,41.35-56.34.36-17.71-6.66-33-19.2-45.22-16.17-15.77-36-20.93-57.89-16.14C248.44,296.94,227.57,322.38,227.89,351.51Z" transform="translate(-89.7 -153.26)"/><path class="cls-3" d="M227.89,351.51c-.32-29.13,20.55-54.57,48.33-60.65,21.89-4.79,41.72.37,57.89,16.14,12.54,12.23,19.56,27.51,19.2,45.22-.48,24.12-15,48.32-41.35,56.34-22.24,6.76-43,3.8-61.56-10.14-12.52-9.38-19.87-22.25-21.78-37.95C228.26,357.49,228.13,354.5,227.89,351.51Z" transform="translate(-89.7 -153.26)"/></svg>